<?xml version="1.0" encoding="UTF-8"?>
<svg xmlns="http://www.w3.org/2000/svg" xmlns:xlink="http://www.w3.org/1999/xlink" viewBox="0 0 50 50" width="50px" height="50px">
<g id="surface1389465">
<path style=" stroke:none;fill-rule:nonzero;fill:rgb(80.000001%,80.000001%,80.000001%);fill-opacity:1;" d="M 37 0 C 34.792969 0 33 1.792969 33 4 C 33 6.207031 34.792969 8 37 8 C 39.207031 8 41 6.207031 41 4 C 41 1.792969 39.207031 0 37 0 Z M 9.5 3 C 7.570312 3 6 4.570312 6 6.5 C 6 8.429688 7.570312 10 9.5 10 C 11.429688 10 13 8.429688 13 6.5 C 13 4.570312 11.429688 3 9.5 3 Z M 25 6.953125 C 17.519531 6.953125 10.714844 11.640625 8.066406 18.621094 C 7.898438 19.0625 8.066406 19.566406 8.464844 19.820312 C 8.867188 20.074219 9.394531 20.011719 9.722656 19.667969 C 12.902344 16.339844 18.757812 14.273438 25 14.273438 C 31.242188 14.273438 37.097656 16.339844 40.277344 19.667969 C 40.472656 19.871094 40.734375 19.976562 41 19.976562 C 41.183594 19.976562 41.367188 19.921875 41.535156 19.820312 C 41.933594 19.566406 42.105469 19.0625 41.933594 18.621094 C 39.289062 11.640625 32.480469 6.953125 25 6.953125 Z M 9.121094 29.988281 C 8.898438 29.957031 8.667969 30.003906 8.464844 30.132812 C 8.066406 30.386719 7.894531 30.890625 8.066406 31.332031 C 10.710938 38.3125 17.519531 43 25 43 C 32.480469 43 39.289062 38.3125 41.933594 31.332031 C 42.101562 30.890625 41.933594 30.386719 41.53125 30.132812 C 41.128906 29.878906 40.605469 29.941406 40.277344 30.285156 C 37.09375 33.613281 31.242188 35.679688 25 35.679688 C 18.753906 35.679688 12.902344 33.613281 9.722656 30.285156 C 9.558594 30.113281 9.34375 30.015625 9.121094 29.984375 Z M 11.5 41 C 9.019531 41 7 43.019531 7 45.5 C 7 47.980469 9.019531 50 11.5 50 C 13.980469 50 16 47.980469 16 45.5 C 16 43.019531 13.980469 41 11.5 41 Z M 11.5 41 "/>
</g>
</svg>
