<svg xmlns="http://www.w3.org/2000/svg"  viewBox="0 0 100 100" width="100px" height="100px" baseProfile="basic"><polygon fill="#31c4f3" points="64.906,24.629 86.471,42.706 78.754,58.457 65.646,54.863 54.44,54.863"/><path fill="#1f212b" d="M78.754,58.957c-0.044,0-0.088-0.006-0.132-0.018l-13.044-3.577H54.44	c-0.162,0-0.313-0.078-0.407-0.21s-0.118-0.301-0.065-0.454l10.466-30.234c0.054-0.155,0.181-0.274,0.339-0.318	c0.159-0.044,0.329-0.006,0.455,0.099l21.565,18.077c0.176,0.148,0.229,0.397,0.128,0.604l-7.717,15.751	C79.118,58.852,78.941,58.957,78.754,58.957z M55.142,54.363h10.503c0.044,0,0.089,0.006,0.132,0.018l12.709,3.485l7.363-15.028	L65.141,25.478L55.142,54.363z"/><polygon fill="#60bd91" points="61.311,23.994 44.609,13 17.546,24.311 13,72.2 38.371,87 45.137,79.071 43.129,36.363"/><path fill="#1f212b" d="M38.371,87.5c-0.086,0-0.173-0.022-0.251-0.068l-25.372-14.8c-0.168-0.099-0.264-0.286-0.246-0.479	l4.546-47.889c0.017-0.184,0.134-0.343,0.305-0.414l27.062-11.312c0.154-0.063,0.329-0.047,0.468,0.044l16.703,10.994	c0.139,0.092,0.224,0.247,0.225,0.414s-0.081,0.323-0.219,0.417L43.641,36.619l1.996,42.43c0.006,0.127-0.037,0.251-0.119,0.348	l-6.766,7.929C38.654,87.44,38.514,87.5,38.371,87.5z M13.528,71.929l24.735,14.429l6.366-7.46l-2-42.512	c-0.008-0.174,0.075-0.339,0.218-0.437l17.565-11.948L44.556,13.564L18.015,24.657L13.528,71.929z"/><path fill="#1f212b" d="M52.271,22.136c-0.094,0-0.19-0.026-0.274-0.083l-7.979-5.252c-0.23-0.152-0.294-0.462-0.143-0.692	c0.151-0.23,0.463-0.295,0.692-0.143l7.979,5.252c0.23,0.152,0.294,0.462,0.143,0.692C52.593,22.057,52.434,22.136,52.271,22.136z"/><path fill="#1f212b" d="M19.41,36.926c-0.016,0-0.032,0-0.048-0.002c-0.275-0.026-0.477-0.27-0.45-0.545l0.953-10.041	c0.026-0.274,0.265-0.484,0.545-0.45c0.275,0.026,0.477,0.27,0.45,0.545l-0.953,10.041C19.882,36.732,19.665,36.926,19.41,36.926z"/><path fill="#1f212b" d="M18.551,45.97c-0.016,0-0.032,0-0.048-0.002c-0.275-0.026-0.477-0.27-0.45-0.545l0.566-5.963	c0.026-0.274,0.268-0.485,0.545-0.45c0.275,0.026,0.477,0.27,0.45,0.545l-0.566,5.963C19.024,45.776,18.806,45.97,18.551,45.97z"/><path fill="#1f212b" d="M16.168,71.075c-0.016,0-0.032,0-0.048-0.002c-0.275-0.026-0.477-0.27-0.45-0.545l2.087-21.984	c0.026-0.274,0.267-0.482,0.545-0.45c0.275,0.026,0.477,0.27,0.45,0.545l-2.087,21.984C16.641,70.881,16.423,71.075,16.168,71.075z"/><polygon fill="#a0d2a1" points="71.037,33.191 45.349,33.191 68.077,13"/><path fill="#1f212b" d="M71.037,33.691H45.349c-0.208,0-0.394-0.128-0.467-0.322c-0.074-0.194-0.02-0.414,0.135-0.552	l22.729-20.191c0.137-0.122,0.331-0.159,0.503-0.096c0.172,0.063,0.297,0.215,0.323,0.397l2.96,20.191	c0.021,0.144-0.021,0.29-0.116,0.4C71.32,33.628,71.182,33.691,71.037,33.691z M46.665,32.691h23.794l-2.742-18.703L46.665,32.691z"/><polygon fill="#f9e65c" points="87,79.177 64.377,86.894 34.354,78.437 43.129,36.363 46.617,33.191 64.906,31.5 63.214,49.894 77.803,44.291"/><path fill="#1f212b" d="M64.377,87.394c-0.045,0-0.091-0.006-0.136-0.019l-30.022-8.457	c-0.253-0.071-0.407-0.326-0.354-0.584l8.774-42.074c0.021-0.103,0.075-0.197,0.153-0.268l3.489-3.171	c0.081-0.073,0.182-0.118,0.291-0.128l18.289-1.691c0.147-0.015,0.294,0.039,0.399,0.145c0.105,0.105,0.158,0.251,0.145,0.399	L63.786,49.14l13.837-5.315c0.133-0.049,0.282-0.042,0.407,0.022c0.126,0.064,0.219,0.18,0.255,0.317l9.197,34.885	c0.067,0.254-0.074,0.517-0.322,0.602l-22.623,7.717C64.486,87.385,64.432,87.394,64.377,87.394z M34.939,78.082l29.423,8.288	l22.035-7.517l-8.937-33.896l-14.068,5.403c-0.161,0.062-0.343,0.036-0.481-0.068c-0.138-0.104-0.212-0.272-0.196-0.444	l1.636-17.795L46.83,33.674l-3.245,2.95L34.939,78.082z"/><path fill="#1f212b" d="M65.521,83.834c-0.208,0-0.402-0.131-0.473-0.339c-0.089-0.261,0.05-0.545,0.312-0.635l4.963-1.693	c0.261-0.087,0.545,0.051,0.635,0.312c0.089,0.261-0.05,0.545-0.312,0.635l-4.963,1.693C65.629,83.826,65.575,83.834,65.521,83.834z"/><path fill="#1f212b" d="M73.515,81.107c-0.208,0-0.402-0.131-0.473-0.339c-0.089-0.261,0.05-0.545,0.312-0.635l9.432-3.217	l-2.407-9.128c-0.07-0.267,0.089-0.541,0.356-0.611c0.264-0.07,0.541,0.088,0.611,0.356l2.525,9.579	c0.067,0.254-0.074,0.517-0.322,0.602l-9.872,3.367C73.623,81.098,73.568,81.107,73.515,81.107z"/><rect width="46" height="46" x="27" y="27" fill="#75849d"/><path fill="#1f212b" d="M73,74H27c-0.552,0-1-0.448-1-1V27c0-0.552,0.448-1,1-1h46c0.552,0,1,0.448,1,1v46	C74,73.552,73.552,74,73,74z M28,72h44V28H28V72z"/><rect width="16.957" height="3.126" x="31.5" y="64" fill="#fff"/><path fill="#1f212b" d="M48.457,67.626H31.5c-0.276,0-0.5-0.224-0.5-0.5V64c0-0.276,0.224-0.5,0.5-0.5h16.957	c0.276,0,0.5,0.224,0.5,0.5v3.126C48.957,67.402,48.733,67.626,48.457,67.626z M32,66.626h15.957V64.5H32V66.626z"/><path fill="#fff" d="M39.191,33.191c4.546,0,7.294,2.643,7.294,6.554v0.106c0,4.334-3.383,6.66-7.611,6.66h-3.171v5.603	H31.58V33.191H39.191z M38.98,42.706c2.114,0,3.277-1.269,3.277-2.854v-0.106c0-1.903-1.269-2.854-3.383-2.854h-3.171v5.814	C35.703,42.706,38.98,42.706,38.98,42.706z"/><path fill="#1f212b" d="M35.703,52.614H31.58c-0.276,0-0.5-0.224-0.5-0.5V33.191c0-0.276,0.224-0.5,0.5-0.5h7.611	c4.735,0,7.794,2.769,7.794,7.054v0.106c0,4.282-3.26,7.16-8.111,7.16h-2.672v5.103C36.203,52.391,35.979,52.614,35.703,52.614z M32.08,51.614h3.123v-5.103c0-0.276,0.224-0.5,0.5-0.5h3.172c4.32,0,7.111-2.418,7.111-6.16v-0.106	c0-3.734-2.604-6.054-6.794-6.054H32.08V51.614z M38.98,43.206h-3.277c-0.276,0-0.5-0.224-0.5-0.5v-5.814c0-0.276,0.224-0.5,0.5-0.5	h3.172c2.468,0,3.883,1.223,3.883,3.354v0.106C42.757,41.858,41.239,43.206,38.98,43.206z M36.203,42.206h2.777	c1.687,0,2.777-0.924,2.777-2.354v-0.106c0-1.562-0.97-2.354-2.883-2.354h-2.672V42.206z"/><path fill="#fff" d="M48.177,42.706L48.177,42.706c0-5.391,4.017-9.831,9.831-9.831c3.594,0,5.709,1.163,7.506,2.96	L62.871,38.9c-1.48-1.374-2.96-2.114-4.863-2.114c-3.171,0-5.497,2.643-5.497,5.92V42.6c0,3.277,2.22,5.92,5.497,5.92	c2.114,0,3.489-0.846,4.969-2.22l2.643,2.643c-1.903,2.114-4.123,3.383-7.717,3.383C52.3,52.431,48.177,48.097,48.177,42.706"/><path fill="#1f212b" d="M57.696,52.828c-2.682,0-5.171-0.992-7.021-2.807c-1.934-1.897-2.999-4.495-2.999-7.315	c0-5.89,4.441-10.331,10.332-10.331c3.332,0,5.682,0.929,7.859,3.106c0.185,0.185,0.196,0.482,0.025,0.68l-2.643,3.065	c-0.089,0.103-0.215,0.165-0.351,0.172c-0.132,0.012-0.269-0.04-0.368-0.133c-1.495-1.388-2.848-1.98-4.522-1.98	c-2.833,0-4.974,2.304-4.998,5.368c0.024,3.113,2.118,5.367,4.998,5.367c1.983,0,3.241-0.798,4.628-2.086	c0.197-0.183,0.504-0.177,0.694,0.013l2.643,2.643c0.188,0.188,0.196,0.49,0.018,0.688c-2.208,2.454-4.703,3.548-8.089,3.548	C57.834,52.827,57.765,52.828,57.696,52.828z M58.009,33.374c-5.32,0-9.332,4.012-9.332,9.331c0,2.549,0.958,4.894,2.699,6.601	c1.703,1.672,4.013,2.57,6.518,2.519c2.963,0,5.091-0.863,7.032-2.871L62.96,46.99c-1.402,1.231-2.83,2.03-4.951,2.03	c-3.375,0-5.931-2.689-5.996-6.278c-0.001-0.012-0.001-0.024-0.001-0.036V42.6c0-0.013,0-0.025,0.001-0.038	c0.069-3.531,2.678-6.277,5.996-6.277c1.775,0,3.279,0.59,4.816,1.903l2.002-2.322C62.946,34.124,60.879,33.374,58.009,33.374z"/></svg>