<?xml version="1.0" encoding="UTF-8"?>
<svg xmlns="http://www.w3.org/2000/svg" xmlns:xlink="http://www.w3.org/1999/xlink" viewBox="0 0 32 32" width="32px" height="32px">
<g id="surface1728069">
<path style=" stroke:none;fill-rule:nonzero;fill:rgb(80.000001%,80.000001%,80.000001%);fill-opacity:1;" d="M 18.039062 0 C 19.800781 4.074219 11.730469 6.585938 10.980469 9.980469 C 10.292969 13.097656 15.773438 16.71875 15.78125 16.71875 C 14.949219 15.429688 14.335938 14.367188 13.5 12.359375 C 12.085938 8.964844 22.101562 5.890625 18.039062 0 Z M 23.398438 5.640625 C 23.398438 5.640625 16.320312 6.09375 15.960938 10.621094 C 15.800781 12.636719 17.824219 13.695312 17.878906 15.160156 C 17.925781 16.359375 16.679688 17.359375 16.679688 17.359375 C 16.679688 17.359375 18.949219 16.925781 19.660156 15.101562 C 20.449219 13.074219 18.125 11.703125 18.359375 10.078125 C 18.585938 8.527344 23.398438 5.640625 23.398438 5.640625 Z M 12.28125 16.101562 C 12.28125 16.101562 5.800781 16.007812 5.800781 17.839844 C 5.800781 19.753906 14.28125 19.898438 20.339844 18.71875 C 20.339844 18.71875 21.949219 17.613281 22.378906 17.199219 C 18.410156 18.011719 9.359375 18.101562 9.359375 17.398438 C 9.359375 16.753906 12.28125 16.101562 12.28125 16.101562 Z M 24.738281 16.101562 C 24.105469 16.148438 23.421875 16.394531 22.800781 16.839844 C 24.261719 16.523438 25.5 17.429688 25.5 18.460938 C 25.5 20.78125 22.140625 22.960938 22.140625 22.960938 C 22.140625 22.960938 27.339844 22.371094 27.339844 18.558594 C 27.339844 16.828125 26.136719 15.988281 24.738281 16.101562 Z M 10.71875 19.660156 C 9.726562 19.660156 8.238281 20.441406 8.238281 21.179688 C 8.238281 22.667969 15.71875 23.8125 21.261719 21.640625 L 19.339844 20.460938 C 15.585938 21.664062 8.671875 21.269531 10.71875 19.660156 Z M 11.640625 23 C 10.277344 23 9.378906 23.824219 9.378906 24.441406 C 9.378906 26.351562 17.515625 26.542969 20.738281 24.601562 L 18.699219 23.300781 C 16.292969 24.316406 10.25 24.472656 11.640625 23 Z M 7.101562 24.71875 C 4.878906 24.675781 3.441406 25.671875 3.441406 26.5 C 3.441406 30.898438 26.160156 30.699219 26.160156 26.199219 C 26.160156 25.453125 25.296875 25.089844 24.980469 24.921875 C 26.835938 29.21875 6.378906 28.878906 6.378906 26.339844 C 6.378906 25.761719 7.886719 25.210938 9.28125 25.480469 L 8.101562 24.800781 C 7.753906 24.746094 7.417969 24.726562 7.101562 24.71875 Z M 28.558594 27.679688 C 25.105469 30.953125 16.351562 32.140625 7.539062 30.121094 C 16.347656 33.726562 28.515625 31.703125 28.558594 27.679688 Z M 28.558594 27.679688 "/>
</g>
</svg>
