<?xml version="1.0" encoding="UTF-8"?>
<svg xmlns="http://www.w3.org/2000/svg" xmlns:xlink="http://www.w3.org/1999/xlink" viewBox="0 0 50 50" width="50px" height="50px">
<g id="surface291876">
<path style=" stroke:none;fill-rule:nonzero;fill:rgb(80.000001%,80.000001%,80.000001%);fill-opacity:1;" d="M 23.667969 1.90625 C 22.878906 1.921875 22.082031 1.980469 21.273438 2.097656 C 20.085938 2.355469 18.941406 2.769531 17.917969 3.308594 C 16.628906 3.894531 15.292969 4.5 14.089844 4.585938 C 14.027344 4.589844 13.96875 4.601562 13.910156 4.613281 C 12.222656 5.050781 10.769531 6.089844 9.832031 7.519531 L 9.683594 7.738281 C 9.652344 7.785156 9.621094 7.835938 9.597656 7.882812 C 8.773438 9.609375 8.554688 11.585938 8.996094 13.519531 C 9.285156 14.457031 9.625 15.355469 9.957031 16.222656 L 10.058594 16.488281 C 10.828125 18.296875 11.386719 20.199219 11.722656 22.136719 C 11.738281 22.234375 11.769531 22.328125 11.816406 22.417969 C 12.144531 23.070312 12.402344 23.757812 12.589844 24.492188 C 12.671875 24.78125 12.753906 25.078125 12.847656 25.378906 C 12.875 25.464844 12.921875 25.535156 12.96875 25.605469 C 12.972656 25.710938 12.984375 25.816406 13.019531 25.917969 L 14.410156 29.890625 C 14.503906 30.160156 14.707031 30.375 14.972656 30.484375 C 15.234375 30.59375 15.53125 30.582031 15.789062 30.457031 C 18.410156 29.183594 24.550781 26.199219 33.023438 31.5 C 33.1875 31.597656 33.371094 31.652344 33.554688 31.652344 C 33.691406 31.652344 33.824219 31.625 33.953125 31.570312 C 34.253906 31.4375 34.472656 31.167969 34.535156 30.84375 C 34.742188 29.800781 34.816406 28.125 34.746094 26.765625 L 34.808594 26.464844 C 34.890625 26.070312 34.972656 25.667969 35.054688 25.273438 C 35.847656 23.511719 37.25 21.808594 38.605469 20.160156 C 40.730469 17.578125 42.929688 14.90625 42.738281 11.921875 C 42.730469 11.785156 42.695312 11.652344 42.632812 11.53125 C 42.320312 10.914062 41.96875 10.316406 41.535156 9.644531 L 41.449219 9.507812 C 41.351562 9.351562 41.25 9.195312 41.144531 9.046875 C 41.066406 8.933594 40.988281 8.828125 40.90625 8.722656 L 40.824219 8.609375 C 40.664062 8.398438 40.507812 8.1875 40.34375 7.988281 C 40.253906 7.878906 40.167969 7.78125 40.050781 7.648438 C 39.871094 7.441406 39.691406 7.238281 39.507812 7.050781 L 39.265625 6.804688 C 39.050781 6.589844 38.839844 6.390625 38.628906 6.207031 L 38.472656 6.074219 C 35.816406 3.804688 33.085938 3.210938 31.421875 2.847656 L 30.496094 2.636719 C 28.328125 2.222656 26.039062 1.863281 23.671875 1.90625 Z M 24.660156 3.910156 C 25.566406 3.9375 26.488281 4.023438 27.4375 4.152344 C 24.179688 9.003906 24.738281 15.566406 25.496094 21.285156 C 24.503906 21.210938 23.484375 21.1875 22.460938 21.238281 C 21.886719 17.832031 21.28125 13.554688 20.765625 10.1875 C 20.613281 8.671875 20.746094 7.140625 21.15625 5.671875 C 21.566406 4.789062 21.605469 4.289062 21.972656 4.023438 C 22.867188 3.914062 23.757812 3.882812 24.660156 3.910156 Z M 21.433594 4.117188 C 20.992188 4.492188 20.667969 5.085938 20.445312 5.835938 C 20.078125 7.359375 19.953125 8.933594 20.074219 10.496094 C 20.320312 14.152344 20.984375 17.757812 22.003906 21.269531 C 21.039062 21.335938 20.082031 21.464844 19.15625 21.671875 C 18.457031 19.257812 18.582031 16.515625 18.355469 13.960938 C 18.125 11.039062 17.164062 8.269531 15.941406 6.632812 C 15.855469 6.433594 15.867188 6.332031 15.890625 6.25 C 16.425781 6.09375 16.949219 5.902344 17.464844 5.6875 C 17.527344 5.722656 17.585938 5.753906 17.640625 5.800781 L 17.660156 5.777344 C 17.609375 5.738281 17.550781 5.707031 17.492188 5.675781 C 17.9375 5.488281 18.371094 5.296875 18.792969 5.105469 C 19.648438 4.65625 20.554688 4.332031 21.433594 4.121094 Z M 17.644531 5.800781 L 17.632812 5.8125 L 17.664062 5.8125 C 17.65625 5.808594 17.648438 5.804688 17.644531 5.800781 Z M 27.496094 4.160156 C 28.328125 4.277344 29.1875 4.421875 30.089844 4.597656 L 31.027344 4.808594 C 31.71875 4.957031 32.574219 5.152344 33.511719 5.488281 C 31.890625 8.386719 30.796875 11.550781 30.300781 14.835938 C 29.941406 17.210938 29.777344 19.609375 29.78125 22.011719 C 28.5625 21.675781 27.167969 21.429688 25.699219 21.304688 C 25.644531 20.03125 25.601562 18.734375 25.652344 18.003906 C 25.828125 15.589844 26.03125 8.121094 27.492188 4.160156 Z M 33.769531 5.574219 C 34.84375 5.988281 36.015625 6.605469 37.175781 7.59375 L 37.308594 7.710938 C 37.492188 7.871094 37.671875 8.042969 37.859375 8.226562 L 38.070312 8.4375 C 38.226562 8.601562 38.382812 8.777344 38.574219 8.996094 C 38.648438 9.082031 38.722656 9.167969 38.796875 9.253906 C 38.90625 9.390625 39.015625 9.535156 39.125 9.679688 C 37.273438 10.398438 34.207031 17.210938 33.789062 23.371094 C 33.714844 23.503906 33.640625 23.628906 33.574219 23.757812 C 32.738281 23.058594 31.550781 22.550781 30.488281 22.210938 C 30.316406 22.15625 30.136719 22.109375 29.960938 22.058594 C 30.121094 19.644531 30.347656 17.113281 30.566406 14.820312 C 31.277344 11.0625 33.09375 9.132812 33.769531 5.574219 Z M 15.582031 6.347656 C 15.628906 6.484375 15.707031 6.617188 15.808594 6.730469 C 17.019531 8.375 17.253906 11.050781 17.515625 13.964844 C 17.738281 16.535156 17.996094 19.292969 18.941406 21.71875 C 18.132812 21.914062 17.359375 22.167969 16.625 22.484375 C 16.027344 20.324219 15.742188 17.882812 15.292969 15.679688 C 14.679688 12.699219 14.601562 10.027344 13.589844 9.214844 C 13.203125 8.679688 12.164062 8.726562 12.652344 7.742188 C 12.769531 7.535156 12.917969 7.34375 13.054688 7.144531 C 13.453125 6.90625 13.871094 6.699219 14.328125 6.574219 C 14.746094 6.539062 15.164062 6.453125 15.578125 6.347656 Z M 12.722656 7.347656 C 12.628906 7.476562 12.535156 7.605469 12.46875 7.753906 C 12.289062 8.085938 12.210938 8.464844 12.246094 8.84375 C 12.273438 9.042969 12.355469 9.230469 12.476562 9.390625 C 13.472656 10.1875 13.992188 12.71875 14.597656 15.691406 C 15.054688 17.929688 15.582031 20.40625 16.394531 22.597656 C 15.691406 22.921875 15.042969 23.308594 14.453125 23.765625 C 14.253906 23.039062 13.996094 22.328125 13.667969 21.652344 C 13.300781 19.609375 12.707031 17.609375 11.910156 15.742188 L 11.824219 15.515625 C 11.507812 14.675781 11.175781 13.808594 10.929688 13.007812 C 10.609375 11.605469 10.761719 10.121094 11.367188 8.816406 L 11.488281 8.644531 C 11.820312 8.136719 12.242188 7.699219 12.722656 7.347656 Z M 39.214844 9.800781 C 39.21875 9.804688 39.214844 9.804688 39.21875 9.808594 L 39.3125 9.929688 C 39.378906 10.015625 39.441406 10.101562 39.503906 10.191406 C 39.59375 10.316406 39.679688 10.449219 39.765625 10.585938 L 39.855469 10.726562 C 40.207031 11.269531 40.492188 11.757812 40.75 12.246094 C 40.773438 14.382812 38.96875 16.574219 37.0625 18.890625 C 36.320312 19.792969 35.566406 20.707031 34.886719 21.660156 C 36.425781 17.71875 37.910156 13.792969 39.214844 9.800781 Z M 23.144531 23.230469 C 25.578125 23.175781 28.019531 23.527344 29.878906 24.117188 C 32.101562 24.824219 32.632812 25.566406 32.652344 25.777344 C 32.6875 26.023438 32.714844 26.324219 32.734375 26.640625 L 32.730469 26.667969 C 32.695312 26.828125 32.714844 26.988281 32.757812 27.136719 C 32.777344 27.746094 32.769531 28.402344 32.738281 29.011719 C 29.25 27.109375 26.113281 26.472656 23.441406 26.472656 C 20.171875 26.472656 17.601562 27.425781 15.933594 28.179688 L 15.109375 25.824219 C 16.921875 24.046875 20.023438 23.300781 23.148438 23.230469 Z M 18.058594 32.378906 L 17.605469 32.683594 C 17.796875 33.007812 18.046875 33.292969 18.335938 33.527344 C 18.566406 33.671875 18.835938 33.742188 19.105469 33.726562 C 19.246094 33.726562 19.382812 33.707031 19.519531 33.667969 L 21.027344 33.121094 C 21.132812 33.082031 21.242188 33.0625 21.351562 33.0625 C 21.515625 33.050781 21.683594 33.097656 21.820312 33.191406 C 22.011719 33.34375 22.179688 33.527344 22.3125 33.734375 L 22.742188 33.496094 L 22.742188 33.484375 C 22.554688 33.195312 22.324219 32.9375 22.054688 32.726562 C 21.839844 32.574219 21.582031 32.496094 21.316406 32.5 C 21.230469 32.496094 21.140625 32.515625 21.058594 32.550781 L 19.425781 33.097656 C 19.320312 33.128906 19.210938 33.140625 19.101562 33.140625 C 18.90625 33.152344 18.714844 33.097656 18.554688 32.988281 C 18.355469 32.8125 18.1875 32.609375 18.058594 32.382812 Z M 34.847656 33.472656 C 34.695312 33.484375 34.550781 33.5625 34.449219 33.683594 C 34.332031 33.785156 34.257812 33.925781 34.238281 34.082031 C 34.226562 34.117188 34.226562 34.152344 34.238281 34.1875 C 34.589844 34.558594 35.039062 34.820312 35.535156 34.945312 C 36.035156 35.097656 36.53125 35.246094 37.015625 35.382812 C 37.507812 35.546875 37.925781 35.878906 38.195312 36.320312 C 38.203125 36.34375 38.203125 36.363281 38.195312 36.382812 C 38.195312 36.476562 37.972656 36.628906 37.542969 36.847656 C 37.324219 36.972656 36.996094 37.25 36.449219 37.664062 C 36.109375 37.941406 35.746094 38.191406 35.359375 38.402344 C 35.03125 38.546875 34.742188 38.773438 34.523438 39.054688 C 34.519531 39.0625 34.515625 39.066406 34.511719 39.070312 C 34.335938 39.273438 34.355469 39.578125 34.558594 39.75 C 34.660156 39.851562 34.800781 39.90625 34.945312 39.902344 C 35.046875 39.902344 35.148438 39.875 35.242188 39.828125 C 35.945312 39.382812 36.621094 38.894531 37.265625 38.367188 C 37.917969 37.828125 38.601562 37.320312 39.308594 36.84375 C 39.703125 36.605469 39.894531 36.355469 39.894531 36.097656 C 39.878906 35.925781 39.785156 35.769531 39.640625 35.675781 C 38.796875 34.921875 37.804688 34.359375 36.730469 34.023438 L 35.9375 33.679688 C 35.667969 33.558594 35.382812 33.488281 35.089844 33.46875 C 35.011719 33.460938 34.929688 33.460938 34.851562 33.46875 Z M 13.066406 33.527344 C 12.367188 34.050781 11.605469 34.480469 10.796875 34.804688 C 9.992188 35.136719 9.230469 35.5625 8.53125 36.070312 C 8.1875 36.378906 7.988281 36.8125 7.984375 37.265625 C 8.023438 37.441406 8.144531 37.585938 8.3125 37.648438 C 8.457031 37.699219 8.613281 37.757812 8.761719 37.816406 C 10.253906 38.453125 11.652344 39.132812 12.964844 39.859375 C 13.140625 39.988281 13.300781 40.125 13.457031 40.273438 C 13.554688 40.320312 13.664062 40.339844 13.773438 40.339844 C 14.039062 40.34375 14.304688 40.25 14.511719 40.082031 C 14.722656 39.929688 14.832031 39.675781 14.800781 39.417969 C 14.808594 39.230469 14.695312 39.054688 14.519531 38.988281 L 12.261719 37.992188 C 11.511719 37.675781 10.777344 37.308594 10.074219 36.902344 C 10.566406 36.285156 11.234375 35.828125 11.988281 35.589844 C 12.734375 35.347656 13.421875 34.957031 14.011719 34.4375 C 14.097656 34.355469 14.144531 34.242188 14.144531 34.128906 C 14.136719 33.960938 14.0625 33.808594 13.929688 33.707031 C 13.773438 33.585938 13.582031 33.523438 13.386719 33.527344 Z M 28.871094 35.074219 C 28.429688 35.054688 28 35.214844 27.675781 35.515625 C 27.308594 35.875 27.152344 36.402344 27.261719 36.90625 C 27.3125 37.382812 27.503906 37.832031 27.808594 38.203125 C 28.070312 38.546875 28.472656 38.746094 28.902344 38.746094 C 29.183594 38.742188 29.460938 38.667969 29.703125 38.53125 C 30.242188 38.144531 30.523438 37.496094 30.441406 36.84375 C 30.414062 36.105469 30.242188 35.605469 29.894531 35.367188 C 29.59375 35.164062 29.234375 35.0625 28.867188 35.074219 Z M 20.394531 35.109375 C 19.953125 35.09375 19.523438 35.25 19.199219 35.546875 C 18.832031 35.910156 18.671875 36.433594 18.785156 36.941406 C 18.835938 37.414062 19.027344 37.863281 19.332031 38.234375 C 19.585938 38.578125 19.992188 38.78125 20.421875 38.777344 C 20.703125 38.773438 20.980469 38.699219 21.222656 38.5625 C 21.714844 38.265625 21.957031 37.710938 21.957031 36.875 C 22.019531 36.328125 21.820312 35.78125 21.421875 35.402344 C 21.117188 35.199219 20.757812 35.097656 20.394531 35.109375 Z M 20.371094 36.285156 C 20.675781 36.285156 20.917969 36.527344 20.917969 36.832031 C 20.917969 37.132812 20.675781 37.378906 20.371094 37.378906 C 20.070312 37.378906 19.824219 37.132812 19.824219 36.832031 C 19.824219 36.527344 20.070312 36.285156 20.371094 36.285156 Z M 28.695312 36.347656 C 28.996094 36.34375 29.242188 36.589844 29.242188 36.890625 C 29.242188 37.191406 28.996094 37.4375 28.695312 37.4375 C 28.394531 37.4375 28.148438 37.191406 28.148438 36.890625 C 28.148438 36.589844 28.394531 36.347656 28.695312 36.347656 Z M 23.402344 40.179688 C 23.390625 40.191406 23.386719 40.207031 23.378906 40.222656 L 23.378906 40.269531 C 23.453125 40.476562 23.546875 40.675781 23.660156 40.867188 C 23.765625 41.050781 23.894531 41.21875 24.042969 41.367188 C 24.179688 41.507812 24.335938 41.621094 24.511719 41.710938 C 24.6875 41.78125 24.871094 41.820312 25.058594 41.828125 L 25.082031 41.851562 C 25.234375 41.851562 25.382812 41.824219 25.523438 41.769531 C 25.660156 41.714844 25.785156 41.644531 25.902344 41.558594 C 26.015625 41.46875 26.121094 41.371094 26.214844 41.265625 C 26.308594 41.160156 26.386719 41.050781 26.453125 40.9375 C 26.519531 40.832031 26.582031 40.726562 26.628906 40.613281 C 26.667969 40.53125 26.703125 40.449219 26.722656 40.363281 L 26.722656 40.316406 C 26.714844 40.300781 26.703125 40.28125 26.695312 40.265625 C 26.554688 40.484375 26.378906 40.675781 26.171875 40.839844 C 26.015625 40.984375 25.828125 41.101562 25.625 41.171875 C 25.421875 41.242188 25.207031 41.277344 24.988281 41.277344 C 24.804688 41.277344 24.617188 41.253906 24.441406 41.199219 C 24.289062 41.152344 24.148438 41.078125 24.019531 40.980469 C 23.894531 40.878906 23.777344 40.761719 23.675781 40.632812 C 23.574219 40.492188 23.480469 40.339844 23.402344 40.179688 Z M 21.957031 42.277344 C 19.773438 42.390625 18.5 45.195312 15.453125 42.609375 C 14.625 47.578125 20.695312 48.070312 23.191406 45.824219 C 24.917969 44.285156 24.429688 42.136719 21.957031 42.277344 Z M 26.960938 42.277344 C 24.875 42.402344 24.550781 44.382812 26.167969 45.824219 C 28.664062 48.066406 34.734375 47.578125 33.90625 42.609375 C 30.855469 45.195312 29.585938 42.390625 27.402344 42.277344 C 27.246094 42.265625 27.101562 42.265625 26.960938 42.277344 Z M 26.960938 42.277344 "/>
</g>
</svg>
